# xmcd
#
# Track frame offsets:
# 150
# 19547
# 40170
# 64425
# 80512
# 98520
# 114692
# 129907
# 147352
# 166995
# 180087
# 191780
# 207635
# 221712
# 235820
# 255015
#
# Disc length: 3593 seconds
#
#
# Revision: 0
# Processed by: cddbd v1.5.1PL0 Copyright (c) Steve Scherf et al.
# Submitted via: FreeRIP 2.80 
#
DISCID=d80e0710
DTITLE=Various Artist - Flower of Love Vol. 2
DYEAR=1900
DGENRE=Easy Listening
TTITLE0=Just when I needed you most
TTITLE1=Hard to say I'm sorry
TTITLE2=Just the way you are
TTITLE3=Kiss and say goodbye
TTITLE4=Stoney
TTITLE5=Longer
TTITLE6=Imagine
TTITLE7=If you leave me now
TTITLE8=When I fall in love
TTITLE9=My guy
TTITLE10=Smoke gets in your eyes
TTITLE11=I don't like to sleep alone
TTITLE12=Tell Laura I love her
TTITLE13=Tell Tommy I mis him
TTITLE14=Memory
TTITLE15=Top of the world
EXTD=
EXTT0=
EXTT1=
EXTT2=
EXTT3=
EXTT4=
EXTT5=
EXTT6=
EXTT7=
EXTT8=
EXTT9=
EXTT10=
EXTT11=
EXTT12=
EXTT13=
EXTT14=
EXTT15=
PLAYORDER=
